<svg width="22" height="17" viewBox="0 0 22 17" fill="none" xmlns="http://www.w3.org/2000/svg">
<path d="M5.33709 7.2C8.28468 7.2 10.6742 5.58823 10.6742 3.6C10.6742 1.61177 8.28468 0 5.33709 0C2.3895 0 0 1.61177 0 3.6C0 5.58823 2.3895 7.2 5.33709 7.2Z" fill="#DC5E5E"/>
<path d="M5.33709 8.6C7.77026 8.6 9.82314 7.50171 10.4656 6C10.6014 6.31749 10.6742 6.65301 10.6742 7C10.6742 8.98822 8.28468 10.6 5.33709 10.6C2.3895 10.6 0 8.98822 0 7C0 6.65301 0.0727786 6.31749 0.208601 6C0.851035 7.50171 2.90391 8.6 5.33709 8.6Z" fill="#DC5E5E"/>
<path d="M10.4656 9.2C9.82314 10.7017 7.77026 11.8 5.33709 11.8C2.90391 11.8 0.851035 10.7017 0.208601 9.2C0.0727786 9.51749 0 9.85301 0 10.2C0 12.1882 2.3895 13.8 5.33709 13.8C8.28468 13.8 10.6742 12.1882 10.6742 10.2C10.6742 9.85301 10.6014 9.51749 10.4656 9.2Z" fill="#DC5E5E"/>
<path d="M5.33709 15C7.77026 15 9.82314 13.9017 10.4656 12.4C10.6014 12.7175 10.6742 13.053 10.6742 13.4C10.6742 15.3882 8.28468 17 5.33709 17C2.3895 17 0 15.3882 0 13.4C0 13.053 0.0727786 12.7175 0.208601 12.4C0.851035 13.9017 2.90391 15 5.33709 15Z" fill="#DC5E5E"/>
<path d="M11.4649 14.2199C12.015 15.8131 14.1335 17 16.6629 17C19.6105 17 22 15.3882 22 13.4C22 13.053 21.9272 12.7175 21.7914 12.4C21.149 13.9017 19.0961 15 16.6629 15C14.43 15 12.5174 14.0751 11.7212 12.7622V12.8C11.7212 13.3 11.6305 13.7786 11.4649 14.2199Z" fill="#DC5E5E"/>
<path d="M11.7212 11.5622C12.5174 12.8751 14.43 13.8 16.6629 13.8C19.6105 13.8 22 12.1882 22 10.2C22 9.85301 21.9272 9.51749 21.7914 9.2C21.149 10.7017 19.0961 11.8 16.6629 11.8C14.43 11.8 12.5174 10.8751 11.7212 9.56225V11.5622Z" fill="#DC5E5E"/>
<path d="M11.7212 8.16225C12.5174 9.47508 14.43 10.4 16.6629 10.4C19.6105 10.4 22 8.78823 22 6.8C22 4.81177 19.6105 3.2 16.6629 3.2C14.1861 3.2 12.1034 4.33802 11.5012 5.88115C11.6437 6.29409 11.7212 6.7379 11.7212 7.2V8.16225Z" fill="#DC5E5E"/>
</svg>
