<svg width="25" height="25" viewBox="0 0 25 25" fill="none" xmlns="http://www.w3.org/2000/svg">
<path fill-rule="evenodd" clip-rule="evenodd" d="M12.5 25C19.4036 25 25 19.4036 25 12.5C25 5.59644 19.4036 0 12.5 0C5.59644 0 0 5.59644 0 12.5C0 19.4036 5.59644 25 12.5 25ZM23.2647 12.5001C23.2647 18.4453 18.4452 23.2648 12.5 23.2648C6.55479 23.2648 1.73526 18.4453 1.73526 12.5001C1.73526 6.55489 6.55479 1.73537 12.5 1.73537C18.4452 1.73537 23.2647 6.55489 23.2647 12.5001ZM24.2647 12.5001C24.2647 18.9975 18.9974 24.2648 12.5 24.2648C6.0025 24.2648 0.735263 18.9975 0.735263 12.5001C0.735263 6.00261 6.0025 0.735368 12.5 0.735368C18.9974 0.735368 24.2647 6.00261 24.2647 12.5001Z" fill="#FFA800"/>
</svg>
