<svg width="15" height="23" viewBox="0 0 15 23" fill="none" xmlns="http://www.w3.org/2000/svg">
<path d="M8.80952 22.0417C8.70168 22.5783 8.16247 23 7.5 23C6.83754 23 6.29832 22.5783 6.19048 22.0417H8.80952Z" fill="#103A4C"/>
<path d="M9.66096 20.2853L5.24123 20.2725C5.22789 20.2736 5.21455 20.2747 5.18787 20.2769C5.07895 20.2589 4.97789 20.1726 4.96802 20.0518C4.95815 19.931 5.03051 19.8304 5.14838 19.7936C5.16172 19.7925 5.17507 19.7914 5.20175 19.7892L9.60813 19.8031C9.74154 19.7921 9.85703 19.8906 9.868 20.0249C9.87897 20.1591 9.79436 20.2742 9.66096 20.2853Z" fill="#103A4C"/>
<path d="M5.15316 20.9796C5.16639 20.9785 5.17962 20.9774 5.20607 20.9753L9.57506 20.9922C9.70732 20.9813 9.82191 21.0799 9.83288 21.2142C9.84384 21.3484 9.74681 21.4645 9.61454 21.4755L5.23233 21.4596C5.2191 21.4607 5.20587 21.4618 5.17942 21.464C5.07141 21.4459 4.97115 21.3596 4.96128 21.2388C4.95141 21.118 5.03522 21.0029 5.15316 20.9796Z" fill="#103A4C"/>
<path d="M5.27194 18.2083H9.72806C10.0099 18.2083 10.2381 18.4227 10.2381 18.6875C10.2381 18.9523 10.0099 19.1667 9.72806 19.1667H5.27194C4.99008 19.1667 4.76191 18.9523 4.76191 18.6875C4.76191 18.4227 4.99008 18.2083 5.27194 18.2083Z" fill="#103A4C"/>
<path d="M7.4599 0C7.4733 0 7.4733 0 7.48669 0C7.50008 0 7.50008 0 7.51347 0C11.6518 0 15 3.40946 15 7.62354C15 10.5829 13.192 12.8332 11.1295 14.7425C10.3126 15.5062 9.83041 16.5972 9.83041 17.7292H7.52687C7.52687 17.7292 7.51347 17.7292 7.50008 17.7292C7.48669 17.7292 7.47329 17.7292 7.47329 17.7292H5.16975C5.16975 16.5836 4.68761 15.4926 3.87066 14.7425C1.80818 12.8332 0.000160217 10.5966 0.000160217 7.62354C-0.0266256 3.42309 3.32156 0 7.4599 0Z" fill="#103A4C"/>
</svg>
