<svg width="63" height="96" viewBox="0 0 63 96" fill="none" xmlns="http://www.w3.org/2000/svg">
<path d="M26 92C26.4529 94.24 28.7176 96 31.5 96C34.2824 96 36.5471 94.24 37 92H26Z" fill="#47196C"/>
<path d="M22.424 84.6689L40.9868 84.6156C41.0429 84.6202 41.0989 84.6248 41.211 84.634C41.6684 84.5588 42.0929 84.1988 42.1343 83.6946C42.1758 83.1903 41.8718 82.7704 41.3768 82.6169C41.3208 82.6123 41.2647 82.6077 41.1527 82.5985L22.6458 82.6564C22.0855 82.6103 21.6005 83.0217 21.5544 83.582C21.5083 84.1423 21.8637 84.6228 22.424 84.6689Z" fill="#47196C"/>
<path d="M41.3567 87.5672C41.3012 87.5626 41.2456 87.558 41.1345 87.5489L22.7848 87.6197C22.2293 87.574 21.748 87.9857 21.7019 88.546C21.6559 89.1063 22.0634 89.5911 22.6189 89.6368L41.0242 89.5705C41.0798 89.5751 41.1353 89.5797 41.2464 89.5888C41.7001 89.5133 42.1212 89.153 42.1626 88.6488C42.2041 88.1445 41.8521 87.6643 41.3567 87.5672Z" fill="#47196C"/>
<path d="M40.8578 76H22.1422C20.9583 76 20 76.8947 20 78C20 79.1053 20.9583 80 22.1422 80H40.8578C42.0417 80 43 79.1053 43 78C43 76.8947 42.0417 76 40.8578 76Z" fill="#47196C"/>
<path d="M31.6684 0C31.6122 0 31.6122 0 31.5559 0C31.4997 0 31.4997 0 31.4434 0C14.0623 0 0 14.2308 0 31.82C0 44.1723 7.59367 53.5646 16.2561 61.5338C19.6873 64.7215 21.7123 69.2754 21.7123 74H31.3872C31.3872 74 31.4434 74 31.4997 74C31.5559 74 31.6122 74 31.6122 74H41.2871C41.2871 69.2185 43.312 64.6646 46.7432 61.5338C55.4057 53.5646 62.9993 44.2292 62.9993 31.82C63.1118 14.2877 49.0495 0 31.6684 0Z" fill="#47196C"/>
</svg>
