<svg width="93" height="96" viewBox="0 0 93 96" fill="none" xmlns="http://www.w3.org/2000/svg">
<path d="M56 92C56.4529 94.24 58.7176 96 61.5 96C64.2823 96 66.5471 94.24 67 92H56Z" fill="#47196C"/>
<path d="M52.424 84.6689L70.9868 84.6156C71.0429 84.6202 71.0989 84.6248 71.211 84.634C71.6684 84.5588 72.0929 84.1988 72.1343 83.6946C72.1758 83.1903 71.8718 82.7704 71.3768 82.6169C71.3208 82.6123 71.2647 82.6077 71.1527 82.5985L52.6458 82.6564C52.0855 82.6103 51.6005 83.0217 51.5544 83.582C51.5083 84.1423 51.8637 84.6228 52.424 84.6689Z" fill="#47196C"/>
<path d="M71.3567 87.5672C71.3012 87.5626 71.2456 87.558 71.1345 87.5489L52.7848 87.6197C52.2293 87.574 51.748 87.9857 51.7019 88.546C51.6559 89.1063 52.0634 89.5911 52.6189 89.6368L71.0242 89.5705C71.0798 89.5751 71.1353 89.5797 71.2464 89.5888C71.7001 89.5133 72.1212 89.153 72.1626 88.6488C72.2041 88.1445 71.8521 87.6643 71.3567 87.5672Z" fill="#47196C"/>
<path d="M70.8578 76H52.1422C50.9583 76 50 76.8947 50 78C50 79.1053 50.9583 80 52.1422 80H70.8578C72.0417 80 73 79.1053 73 78C73 76.8947 72.0417 76 70.8578 76Z" fill="#47196C"/>
<path d="M61.6684 0C61.6122 0 61.6122 0 61.5559 0C61.4997 0 61.4997 0 61.4434 0C44.0623 0 30 14.2308 30 31.82C30 44.1723 37.5937 53.5646 46.2561 61.5338C49.6873 64.7215 51.7123 69.2754 51.7123 74H61.3872C61.3872 74 61.4434 74 61.4997 74C61.5559 74 61.6122 74 61.6122 74H71.2871C71.2871 69.2185 73.312 64.6646 76.7432 61.5338C85.4057 53.5646 92.9993 44.2292 92.9993 31.82C93.1118 14.2877 79.0495 0 61.6684 0Z" fill="#47196C"/>
<path d="M6.99895 92.1386C7.25955 93.181 8.56255 94 10.1634 94C11.7642 94 13.0672 93.181 13.3278 92.1386H6.99895Z" fill="#47196C"/>
<path d="M1.53153 87.2486L18.9484 87.2014C18.9856 87.2035 19.0227 87.2056 19.0971 87.2099C19.3987 87.1526 19.6737 86.9073 19.6929 86.5728C19.712 86.2383 19.5039 85.9653 19.1737 85.8719C19.1365 85.8697 19.0993 85.8676 19.025 85.8633L7.77057 85.7412L1.64529 85.9127C1.27361 85.8914 0.959247 86.1717 0.937973 86.5434C0.9167 86.9151 1.15985 87.2273 1.53153 87.2486Z" fill="#47196C"/>
<path d="M18.9445 89.2148C18.9074 89.2127 18.8702 89.2105 18.7959 89.2063L7.54143 89.0842L1.41613 89.2556C1.04446 89.2344 0.730102 89.5147 0.708828 89.8864C0.687555 90.258 0.967873 90.5724 1.33955 90.5937L18.7564 90.5464C18.7936 90.5486 18.8308 90.5507 18.9051 90.555C19.2067 90.4976 19.4818 90.2524 19.5009 89.9178C19.5201 89.5833 19.2769 89.2711 18.9445 89.2148Z" fill="#47196C"/>
<path d="M18.9121 81.1561H1.41469C0.632886 81.1561 0 81.789 0 82.5708C0 83.3526 0.632886 83.9855 1.41469 83.9855H18.9121C19.6939 83.9855 20.3268 83.3526 20.3268 82.5708C20.3268 81.789 19.6939 81.1561 18.9121 81.1561Z" fill="#47196C"/>
<path d="M19.4705 79.2203V28.1799C19.4705 24.7549 16.6784 22 13.2906 22H7.11067C3.68564 22 0.930727 24.7921 0.930727 28.1799V79.2203H19.4705Z" fill="#47196C"/>
</svg>
