<svg width="20" height="20" viewBox="0 0 20 20" fill="none" xmlns="http://www.w3.org/2000/svg">
<path fill-rule="evenodd" clip-rule="evenodd" d="M7.56097 0.975609C7.56097 0.436796 7.99777 0 8.53658 0H11.4634C12.0022 0 12.439 0.436796 12.439 0.975609V2.33988C12.8703 2.48164 13.285 2.65998 13.6795 2.87122L14.6566 1.89414C15.0376 1.51314 15.6553 1.51314 16.0363 1.89414L18.1059 3.96372C18.4869 4.34472 18.4869 4.96245 18.1059 5.34344L17.0711 6.37823C17.0636 6.38566 17.0561 6.39294 17.0485 6.40008C17.2262 6.77249 17.3751 7.16119 17.4926 7.56333C17.5152 7.56177 17.538 7.56098 17.561 7.56098H19.0244C19.5632 7.56098 20 7.99777 20 8.53658V11.4634C20 12.0022 19.5632 12.439 19.0244 12.439H17.561C17.4852 12.439 17.4114 12.4304 17.3406 12.414C17.2088 12.7781 17.0506 13.1296 16.8684 13.4661C16.9409 13.5079 17.0091 13.5598 17.0711 13.6218L18.1059 14.6566C18.4869 15.0376 18.4869 15.6553 18.1059 16.0363L16.0363 18.1059C15.6553 18.4869 15.0376 18.4869 14.6566 18.1059L13.6218 17.0711C13.5336 16.9829 13.4659 16.8821 13.4185 16.7745C13.0813 16.939 12.7305 17.08 12.3681 17.1952C12.4139 17.3082 12.439 17.4316 12.439 17.561V19.0244C12.439 19.5632 12.0022 20 11.4634 20H8.53658C7.99777 20 7.56097 19.5632 7.56097 19.0244V17.561C7.56097 17.4316 7.58614 17.3082 7.63185 17.1952C7.26955 17.08 6.91871 16.939 6.5815 16.7745C6.53413 16.8821 6.46638 16.9829 6.37823 17.0711L5.34344 18.1059C4.96245 18.4869 4.34473 18.4869 3.96372 18.1059L1.89414 16.0363C1.51315 15.6553 1.51315 15.0376 1.89414 14.6566L2.92893 13.6218C2.9909 13.5598 3.05912 13.5079 3.13157 13.4661C2.94939 13.1296 2.79124 12.7781 2.65939 12.414C2.58857 12.4304 2.51481 12.439 2.43903 12.439H0.975609C0.436798 12.439 0 12.0022 0 11.4634V8.53658C0 7.99777 0.436798 7.56098 0.975609 7.56098H2.43903C2.462 7.56098 2.48479 7.56177 2.50736 7.56333C2.62486 7.16119 2.77384 6.7725 2.95148 6.40008C2.94387 6.39295 2.93636 6.38567 2.92893 6.37824L1.89414 5.34345C1.51315 4.96245 1.51315 4.34473 1.89414 3.96373L3.96372 1.89415C4.34473 1.51315 4.96245 1.51315 5.34344 1.89415L6.32052 2.87122C6.71496 2.65998 7.12967 2.48164 7.56097 2.33988V0.975609ZM10 14C12.2091 14 14 12.2091 14 10C14 7.79086 12.2091 6 10 6C7.79086 6 6 7.79086 6 10C6 12.2091 7.79086 14 10 14Z" fill="#47196C"/>
</svg>
