<svg width="18" height="19" viewBox="0 0 18 19" fill="none" xmlns="http://www.w3.org/2000/svg">
<path fill-rule="evenodd" clip-rule="evenodd" d="M16.5385 0C17.0907 0 17.5385 0.447715 17.5385 1V7C17.5385 13.6274 12.1659 19 5.53846 19H1C0.447715 19 0 18.5523 0 18V12C0 5.37258 5.37259 0 12 0H16.5385ZM16.0512 1.18717H12.4871C6.24628 1.18717 1.18709 6.24635 1.18709 12.4872V17.5128C1.18709 17.6785 1.3214 17.8128 1.48709 17.8128H5.05118C11.292 17.8128 16.3512 12.7536 16.3512 6.5128V1.48717C16.3512 1.32148 16.2169 1.18717 16.0512 1.18717ZM17.0512 1.48717C17.0512 0.934882 16.6035 0.487166 16.0512 0.487166H12.4871C5.85968 0.487166 0.487089 5.85975 0.487089 12.4872V17.5128C0.487089 18.0651 0.934805 18.5128 1.48709 18.5128H5.05118C11.6786 18.5128 17.0512 13.1402 17.0512 6.5128V1.48717Z" fill="url(#paint0_linear_2231_17)"/>
<defs>
<linearGradient id="paint0_linear_2231_17" x1="8.76923" y1="0" x2="8.76923" y2="19" gradientUnits="userSpaceOnUse">
<stop stop-color="#FF8D6F"/>
<stop offset="0.28125" stop-color="#FFAF6B"/>
<stop offset="0.802083" stop-color="#FF936F"/>
<stop offset="1" stop-color="#FF7C58"/>
</linearGradient>
</defs>
</svg>
