<svg width="21" height="21" viewBox="0 0 21 21" fill="none" xmlns="http://www.w3.org/2000/svg">
<path fill-rule="evenodd" clip-rule="evenodd" d="M9.6255 0.700921C9.6294 0.704508 9.6354 0.704507 9.6393 0.700921L10.0169 0.353633C10.2342 0.153729 10.5685 0.153729 10.7858 0.353633L19.786 8.63225C20.2443 9.05379 20.2443 9.77702 19.786 10.1986C19.5266 10.4372 19.1783 10.5238 18.8543 10.4584V19C18.8543 20.1046 17.9589 21 16.8543 21H13V15.5C13 14.1193 11.8807 13 10.5 13C9.11927 13 7.99999 14.1193 7.99999 15.5V21H3.80269C2.69812 21 1.80269 20.1046 1.80269 19V10.5808C1.47324 10.6538 1.11605 10.5686 0.851402 10.3251C0.39312 9.9036 0.39312 9.18037 0.851402 8.75883L9.46756 0.833511L9.4759 0.82223L9.4779 0.824005L9.61171 0.700921C9.61561 0.697335 9.6216 0.697335 9.6255 0.700921Z" fill="#6E3208"/>
</svg>
