<svg width="22" height="18" viewBox="0 0 22 18" fill="none" xmlns="http://www.w3.org/2000/svg">
<path d="M5.80626 0.657311C5.80626 0.294288 6.10055 0 6.46357 0H14.601C14.964 0 15.2583 0.294288 15.2583 0.657311V16.7614C15.2583 17.1245 14.964 17.4188 14.601 17.4188H6.46357C6.10055 17.4188 5.80626 17.1245 5.80626 16.7614V0.657311Z" fill="#3A307D"/>
<path d="M16.8786 9.70424C16.8786 9.34122 17.1729 9.04693 17.5359 9.04693H20.9473C21.3104 9.04693 21.6047 9.34122 21.6047 9.70424V16.7614C21.6047 17.1244 21.3104 17.4187 20.9473 17.4187H17.5359C17.1729 17.4187 16.8786 17.1244 16.8786 16.7614V9.70424Z" fill="#3A307D"/>
<path d="M0 5.38332C0 5.0203 0.294288 4.72601 0.657311 4.72601H3.52859C3.89161 4.72601 4.1859 5.0203 4.1859 5.38332V16.7614C4.1859 17.1245 3.89161 17.4187 3.52859 17.4187H0.657312C0.294289 17.4187 0 17.1245 0 16.7614V5.38332Z" fill="#3A307D"/>
<path d="M10.7837 1.77475L11.3749 3.59415H13.2879L11.7402 4.71861L12.3314 6.53801L10.7837 5.41356L9.23602 6.53801L9.82718 4.71861L8.27951 3.59415H10.1925L10.7837 1.77475Z" fill="white"/>
</svg>
