<svg width="28" height="22" viewBox="0 0 28 22" fill="none" xmlns="http://www.w3.org/2000/svg">
<path d="M1.73723 16.9893V3.60855H0.715328C0.143066 3.60855 0 4.1575 0 4.43198V21.0036C0 22.074 1.0219 22.0672 1.53285 21.9299C3.9854 20.9418 9.50365 21.381 11.9562 21.7241C9.50365 19.3567 5.51825 19.3567 3.88321 19.1509C2.57518 18.9862 1.90754 17.6412 1.73723 16.9893Z" fill="#8a3d93"/>
<path d="M3.37226 0.932388C3.45401 0.108954 4.29197 -0.0282848 4.70073 0.00602489C10.1781 -0.158664 12.8418 3.0939 13.4891 4.74077L13.3869 20.9007C9.81022 17.2981 4.70073 17.504 4.18978 17.504C3.78102 17.504 3.47445 16.8864 3.37226 16.5776V0.932388Z" fill="#8a3d93"/>
<path d="M26.2628 16.9954V3.61458H27.2847C27.8569 3.61458 28 4.16353 28 4.43801V21.0096C28 22.0801 26.9781 22.0732 26.4672 21.936C24.0146 20.9479 18.4963 21.387 16.0438 21.7301C18.4963 19.3627 22.4818 19.3627 24.1168 19.1569C25.4248 18.9922 26.0925 17.6473 26.2628 16.9954Z" fill="#8a3d93"/>
<path d="M24.6277 0.938419C24.546 0.114985 23.708 -0.0222538 23.2993 0.0120559C17.8219 -0.152633 15.1582 3.09993 14.5109 4.7468L14.6131 20.9067C18.1898 17.3042 23.2993 17.51 23.8102 17.51C24.219 17.51 24.5255 16.8925 24.6277 16.5837V0.938419Z" fill="#8a3d93"/>
</svg>
