<svg width="189" height="295" viewBox="0 0 189 295" fill="none" xmlns="http://www.w3.org/2000/svg">
<path d="M140.148 15.8043L140.145 15.8154C139.097 19.4101 133.792 29.4712 121.105 39.2149L85.4679 37.7894C85.1687 33.6475 85.2086 27.7781 86.199 22.263C87.318 16.0326 89.5588 10.766 93.3483 8.52672L93.4192 8.48478L93.4852 8.43533C94.2516 7.86049 94.8718 6.96057 95.1557 6.00696C95.4409 5.0484 95.4533 3.73487 94.492 2.70942C93.5723 1.72841 92.1242 1.41447 90.452 1.51953C88.7405 1.62706 86.4829 2.18634 83.5386 3.33846C80.3099 4.60184 76.7687 7.71002 73.6159 11.4663C70.4291 15.2632 67.4897 19.9016 65.521 24.4523C63.5774 28.9449 62.4706 33.6026 63.2837 37.3286C63.7011 39.2411 64.6337 40.9407 66.2314 42.1838C66.3987 42.314 66.5719 42.4381 66.7508 42.556C59.5691 44.6782 50.8869 48.8976 43.5119 55.9379C34.2484 64.7809 27.0961 78.0339 27.5434 96.9793C22.6579 97.9164 16.7552 100.092 11.8012 103.991C6.35491 108.277 2.05462 114.657 1.58713 123.658C1.19154 131.274 1.91898 139.347 8.50219 145.691C14.7472 151.708 25.9824 155.888 45.554 157.099C41.7977 163.693 36.9563 173.509 33.2954 183.899C29.4682 194.761 26.8358 206.51 28.3099 215.895C22.5686 216.547 15.1244 218.564 9.78677 222.826C6.82071 225.194 4.46038 228.293 3.47179 232.262C2.48344 236.23 2.90872 240.895 5.20367 246.32C9.79988 257.184 18.0076 263.026 26.3346 265.891C32.3488 267.961 38.4455 268.488 43.3611 268.256C41.2648 270.123 39.0705 272.252 37.3204 274.298C35.899 275.959 34.6631 277.686 34.0728 279.247C33.7763 280.03 33.5878 280.912 33.7431 281.785C33.9117 282.731 34.4581 283.508 35.3134 284.022C37.008 285.038 39.1209 285.116 41.2154 284.743C43.3377 284.365 45.6536 283.488 47.951 282.323C52.3431 280.096 56.8936 276.702 60.231 273.235H94.1475C94.9253 273.714 96.1644 274.385 97.5632 274.925C96.0197 276.415 94.3291 278.296 92.9654 280.323C91.0155 283.223 89.3977 286.927 90.6851 290.274C91.04 291.197 91.6369 292.201 92.7491 292.542C93.8735 292.886 94.8718 292.355 95.5064 291.899C96.1885 291.41 96.8782 290.7 97.5459 289.952C98.0387 289.4 98.5692 288.77 99.1161 288.12C99.3186 287.879 99.5235 287.636 99.7295 287.393C101.289 285.552 103.011 283.617 104.948 282.139C106.878 280.666 108.908 279.735 111.085 279.735C116.4 279.735 130.672 279.107 143.85 275.559C150.435 273.786 156.857 271.256 161.759 267.629C166.687 263.981 170.17 259.147 170.582 252.833L170.585 252.784V252.735C170.585 241.759 166.726 236.482 163.387 234.798C165.97 223.574 162.123 199.749 131.57 177.821C140.305 178.834 151.161 178.561 160.953 175.152C167.25 172.96 173.15 169.455 177.738 164.12C182.334 158.775 185.545 151.672 186.576 142.404C187.338 135.778 182.411 131.099 176.547 128.399C172.552 126.559 167.841 125.483 163.424 125.24C165.711 123.434 167.826 121.029 169.389 117.906C172.134 112.422 173.09 104.902 170.539 94.8658C167.505 82.9307 163.568 74.5611 159.835 68.9314C156.976 64.6197 154.189 61.8462 151.965 60.3482C154.995 56.8012 158.332 51.3586 159.821 44.9893C161.542 37.6236 160.785 29.0123 154.259 20.802L154.218 20.7495L154.171 20.7009C150.132 16.4596 147.154 14.4211 144.946 13.7714C143.812 13.4377 142.746 13.4323 141.842 13.8471C140.921 14.27 140.379 15.0342 140.148 15.8043Z" fill="#EA8046" stroke="black" stroke-width="3"/>
<path d="M45.585 89.2355C33.985 85.6355 29.085 93.4022 28.085 97.7355C25.2051 103.236 27.085 105.735 36.585 113.235C46.085 120.735 65.085 116.235 65.585 109.735C66.085 103.235 60.085 93.7355 45.585 89.2355Z" fill="#00090A"/>
<path d="M144.085 112.235C147.285 118.235 142.752 123.402 140.085 125.235L120.085 129.235C113.085 128.735 98.685 125.435 97.085 116.235C95.085 104.735 104.085 102.735 116.585 101.735C129.085 100.735 140.085 104.735 144.085 112.235Z" fill="#00090A"/>
<path fill-rule="evenodd" clip-rule="evenodd" d="M28.5009 217.384C29.0451 217.322 29.5743 217.273 30.0851 217.236C26.0851 198.836 40.4185 168.57 48.0851 155.736C6.08514 153.736 2.30603 141.235 3.08512 123.736C3.82489 107.121 18.5369 100.07 28.3842 98.3511C32.2732 105.7 50.2527 119.347 77.0851 112.736C77.2705 112.942 77.4559 113.149 77.6417 113.357C81.9653 118.18 86.4971 123.236 96.0851 123.236C97.4437 123.236 99.1026 123.232 101.004 123.227C115.67 123.187 144.754 123.108 161.567 124.755C160.245 125.684 158.881 126.413 157.554 126.965C168.521 125.333 186.386 130.966 185.085 142.236C181.085 178.236 143.418 179.236 125.085 175.236C125.755 175.666 126.413 176.096 127.06 176.528C124.806 202.636 109.625 256.063 66.5851 263.236C58.2099 255.699 36.5071 234.833 28.5009 217.384Z" fill="#FDFDFD"/>
<path d="M83.585 242.235C90.385 217.435 107.752 216.902 115.585 219.735C119.585 220.402 126.985 224.735 124.585 236.735C122.185 248.735 103.585 265.402 94.585 272.235C89.585 270.069 80.385 261.035 83.585 242.235Z" fill="#EA8046"/>
<ellipse cx="110.806" cy="108.735" rx="5" ry="4.5" fill="white"/>
<ellipse cx="40.806" cy="95.7354" rx="5" ry="4.5" fill="white"/>
<ellipse cx="119.894" cy="112.309" rx="2.10097" ry="2.2642" transform="rotate(-48.5171 119.894 112.309)" fill="white"/>
<ellipse cx="49.8939" cy="99.3092" rx="2.10097" ry="2.2642" transform="rotate(-48.5171 49.8939 99.3092)" fill="white"/>
<path fill-rule="evenodd" clip-rule="evenodd" d="M129.463 177.495C135.95 181.853 141.312 186.296 145.723 190.706C141.941 201.643 131.444 216.846 113.069 206.924C88.0694 193.424 85.5694 171.424 89.0694 165.424C89.1842 165.227 89.2964 165.033 89.4064 164.843C92.6496 159.244 94.0452 156.834 108.069 168.924C109.411 169.461 110.589 169.804 111.924 170.192C115.219 171.151 119.465 172.388 129.463 177.495Z" fill="#EA8046"/>
<path d="M129.463 177.495L130.3 176.25L130.226 176.2L130.146 176.16L129.463 177.495ZM145.723 190.706L147.14 191.196L147.447 190.309L146.783 189.645L145.723 190.706ZM113.069 206.924L113.782 205.604L113.069 206.924ZM89.0694 165.424L90.3651 166.18L89.0694 165.424ZM89.4064 164.843L88.1084 164.092L88.1084 164.092L89.4064 164.843ZM108.069 168.924L107.09 170.06L107.28 170.224L107.512 170.317L108.069 168.924ZM111.924 170.192L112.344 168.752V168.752L111.924 170.192ZM128.627 178.74C135.039 183.048 140.325 187.43 144.662 191.767L146.783 189.645C142.299 185.161 136.86 180.657 130.3 176.25L128.627 178.74ZM112.357 208.244C117.147 210.83 121.522 211.831 125.474 211.612C129.43 211.393 132.856 209.958 135.751 207.85C141.494 203.668 145.199 196.809 147.14 191.196L144.305 190.216C142.464 195.54 139.031 201.751 133.985 205.425C131.487 207.244 128.607 208.434 125.309 208.616C122.007 208.799 118.179 207.979 113.782 205.604L112.357 208.244ZM87.7737 164.668C86.6945 166.518 86.1898 169.347 86.3286 172.605C86.4694 175.909 87.2775 179.817 88.9976 183.939C92.4453 192.201 99.5611 201.334 112.357 208.244L113.782 205.604C101.578 199.014 94.9435 190.397 91.7662 182.784C90.1738 178.968 89.4507 175.407 89.3259 172.477C89.199 169.501 89.6943 167.33 90.3651 166.18L87.7737 164.668ZM88.1084 164.092C87.9982 164.282 87.8872 164.474 87.7737 164.668L90.3651 166.18C90.4813 165.981 90.5946 165.785 90.7044 165.595L88.1084 164.092ZM109.049 167.788C105.525 164.75 102.746 162.58 100.505 161.137C98.2941 159.714 96.4488 158.891 94.8195 158.755C93.0423 158.607 91.7055 159.286 90.646 160.37C89.6799 161.358 88.8865 162.748 88.1084 164.092L90.7044 165.595C91.5479 164.139 92.1451 163.128 92.7911 162.467C93.3437 161.902 93.8403 161.684 94.5705 161.745C95.4485 161.818 96.7844 162.31 98.8809 163.66C100.947 164.99 103.602 167.053 107.09 170.06L109.049 167.788ZM112.344 168.752C111.003 168.362 109.891 168.037 108.627 167.531L107.512 170.317C108.931 170.884 110.176 171.245 111.505 171.632L112.344 168.752ZM130.146 176.16C120.056 171.005 115.721 169.735 112.344 168.752L111.505 171.632C114.717 172.568 118.875 173.77 128.781 178.831L130.146 176.16Z" fill="black"/>
<path d="M116.085 220.235C108.252 217.402 90.3849 217.435 83.5849 242.235C80.3849 261.035 89.5849 270.069 94.5849 272.235M28.806 216.735C29.527 219.235 33.285 228.135 42.085 237.735M60.585 120.735C61.7516 125.902 66.185 134.035 74.585 125.235C75.785 120.835 75.7516 118.069 75.585 117.235C74.9183 122.735 75.485 133.435 83.085 132.235C89.485 131.035 91.7516 126.402 92.085 124.235M127.085 135.235L119.585 144.735M134.585 137.235L128.585 146.735M140.585 137.235L135.085 147.235M36.585 112.735L34.085 118.235M31.585 111.235L27.585 119.735M24.085 110.735L19.085 115.235" stroke="black" stroke-width="3" stroke-linecap="round"/>
<path d="M140.148 15.8043L140.145 15.8154C139.097 19.4101 133.792 29.4712 121.105 39.2149L85.4679 37.7894C85.1687 33.6475 85.2086 27.7781 86.199 22.263C87.318 16.0326 89.5588 10.766 93.3483 8.52672C93.3955 8.49878 93.4412 8.46827 93.4852 8.43533C94.2516 7.86049 94.8718 6.96057 95.1557 6.00696C95.4409 5.0484 95.4533 3.73487 94.492 2.70942C93.5723 1.72841 92.1242 1.41447 90.452 1.51953C88.7405 1.62706 86.4829 2.18634 83.5386 3.33846C80.3099 4.60184 76.7687 7.71002 73.6159 11.4663C70.4291 15.2632 67.4897 19.9016 65.521 24.4523C63.5774 28.9449 62.4706 33.6026 63.2837 37.3286C63.7011 39.2411 64.6337 40.9407 66.2314 42.1838C66.3987 42.314 66.5719 42.4381 66.7508 42.556C59.5691 44.6782 50.8869 48.8976 43.5119 55.9379C34.2484 64.7809 27.0961 78.0339 27.5434 96.9793C22.6579 97.9164 16.7552 100.092 11.8012 103.991C6.35491 108.277 2.05462 114.657 1.58713 123.658C1.19154 131.274 1.91898 139.347 8.50219 145.691C14.7472 151.708 25.9824 155.888 45.554 157.099C41.7977 163.693 36.9563 173.509 33.2954 183.899C29.4682 194.761 26.8358 206.51 28.3099 215.895C22.5686 216.547 15.1244 218.564 9.78677 222.826C6.82071 225.194 4.46038 228.293 3.47179 232.262C2.48344 236.23 2.90872 240.895 5.20367 246.32C9.79988 257.184 18.0076 263.026 26.3346 265.891C32.3488 267.961 38.4455 268.488 43.3611 268.256C41.2648 270.123 39.0705 272.252 37.3204 274.298C35.899 275.959 34.6631 277.686 34.0728 279.247C33.7763 280.03 33.5878 280.912 33.7431 281.785C33.9117 282.731 34.4581 283.508 35.3134 284.022C37.008 285.038 39.1209 285.116 41.2154 284.743C43.3377 284.365 45.6536 283.488 47.951 282.323C52.3431 280.096 56.8936 276.702 60.231 273.235H94.1475C94.9253 273.714 96.1644 274.385 97.5632 274.925C96.0197 276.415 94.3291 278.296 92.9654 280.323C91.0155 283.223 89.3977 286.927 90.6851 290.274C91.04 291.197 91.6369 292.201 92.7491 292.542C93.8735 292.886 94.8718 292.355 95.5064 291.899C96.1885 291.41 96.8782 290.7 97.5459 289.952C98.0387 289.4 98.5692 288.77 99.1161 288.12C99.3186 287.879 99.5235 287.636 99.7295 287.393C101.289 285.552 103.011 283.617 104.948 282.139C106.878 280.666 108.908 279.735 111.085 279.735C116.4 279.735 130.672 279.107 143.85 275.559C150.435 273.786 156.857 271.256 161.759 267.629C166.687 263.981 170.17 259.147 170.582 252.833C170.584 252.8 170.585 252.768 170.585 252.735C170.585 241.759 166.726 236.482 163.387 234.798C165.97 223.574 162.123 199.749 131.57 177.821C140.305 178.834 151.161 178.561 160.953 175.152C167.25 172.96 173.15 169.455 177.738 164.12C182.334 158.775 185.545 151.672 186.576 142.404C187.338 135.778 182.411 131.099 176.547 128.399C172.552 126.559 167.841 125.483 163.424 125.24C165.711 123.434 167.826 121.029 169.389 117.906C172.134 112.422 173.09 104.902 170.539 94.8658C167.505 82.9307 163.568 74.5611 159.835 68.9314C156.976 64.6197 154.189 61.8462 151.965 60.3482C154.995 56.8012 158.332 51.3586 159.821 44.9893C161.542 37.6236 160.785 29.0123 154.259 20.802C154.232 20.767 154.202 20.7332 154.171 20.7009C150.132 16.4596 147.154 14.4211 144.946 13.7714C143.812 13.4377 142.746 13.4323 141.842 13.8471C140.921 14.27 140.379 15.0342 140.148 15.8043Z" stroke="black" stroke-width="3" stroke-linejoin="round"/>
<path fill-rule="evenodd" clip-rule="evenodd" d="M37.8649 151.495C32.3139 155.224 27.5862 159.016 23.5735 162.796C20.5588 167.568 20.5096 171.948 21.1055 173.735C24.4596 183.797 34.2588 191.724 54.2588 180.924C79.2588 167.424 81.7588 145.424 78.2588 139.424C78.144 139.227 78.0319 139.033 77.9218 138.843C74.6787 133.244 73.2831 130.834 59.2588 142.924C57.9173 143.461 56.7388 143.804 55.4039 144.192C52.1093 145.151 47.8628 146.388 37.8649 151.495Z" fill="#EA8046"/>
<path d="M37.8649 151.495L37.0284 150.25L37.1027 150.2L37.1824 150.16L37.8649 151.495ZM23.5735 162.796L22.3054 161.995L22.4068 161.835L22.5449 161.705L23.5735 162.796ZM21.1055 173.735L22.5285 173.261L21.1055 173.735ZM54.2588 180.924L54.9716 182.244L54.2588 180.924ZM78.2588 139.424L76.9632 140.18L78.2588 139.424ZM77.9218 138.843L79.2199 138.092L79.2199 138.092L77.9218 138.843ZM59.2588 142.924L60.2382 144.06L60.0485 144.224L59.816 144.317L59.2588 142.924ZM55.4039 144.192L54.9847 142.752V142.752L55.4039 144.192ZM38.7013 152.74C33.2138 156.427 28.5511 160.168 24.602 163.888L22.5449 161.705C26.6214 157.864 31.414 154.022 37.0284 150.25L38.7013 152.74ZM19.6825 174.21C18.9162 171.911 19.1022 167.065 22.3054 161.995L24.8416 163.598C22.0154 168.071 22.103 171.984 22.5285 173.261L19.6825 174.21ZM54.9716 182.244C44.7754 187.75 36.8661 188.653 30.942 186.568C25.001 184.477 21.454 179.524 19.6825 174.21L22.5285 173.261C24.1111 178.009 27.1408 182.05 31.9379 183.738C36.752 185.432 43.7423 184.898 53.5461 179.604L54.9716 182.244ZM79.5545 138.668C80.6337 140.518 81.1385 143.347 80.9997 146.605C80.8589 149.909 80.0508 153.817 78.3306 157.939C74.883 166.201 67.7671 175.334 54.9716 182.244L53.5461 179.604C65.7506 173.014 72.3847 164.397 75.562 156.784C77.1544 152.968 77.8776 149.407 78.0024 146.477C78.1292 143.501 77.634 141.33 76.9632 140.18L79.5545 138.668ZM79.2199 138.092C79.3301 138.282 79.441 138.474 79.5545 138.668L76.9632 140.18C76.847 139.981 76.7337 139.785 76.6238 139.595L79.2199 138.092ZM58.2794 141.788C61.8035 138.75 64.582 136.58 66.8233 135.137C69.0342 133.714 70.8794 132.891 72.5087 132.755C74.2859 132.607 75.6228 133.286 76.6823 134.37C77.6483 135.358 78.4418 136.748 79.2199 138.092L76.6238 139.595C75.7804 138.139 75.1832 137.128 74.5371 136.467C73.9846 135.902 73.4879 135.684 72.7578 135.745C71.8797 135.818 70.5438 136.31 68.4474 137.66C66.3813 138.99 63.7263 141.053 60.2382 144.06L58.2794 141.788ZM54.9847 142.752C56.3249 142.362 57.4371 142.037 58.7017 141.531L59.816 144.317C58.3976 144.884 57.1527 145.245 55.8232 145.632L54.9847 142.752ZM37.1824 150.16C47.272 145.005 51.6076 143.735 54.9847 142.752L55.8232 145.632C52.6111 146.568 48.4536 147.77 38.5473 152.831L37.1824 150.16Z" fill="black"/>
<g style="mix-blend-mode:plus-darker">
<path fill-rule="evenodd" clip-rule="evenodd" d="M74.3517 271.735H94.5851C95.5851 272.402 98.1851 273.835 100.585 274.235C96.9184 277.235 90.0851 284.535 92.0851 289.735C93.2491 292.762 95.1718 290.477 97.9542 287.171C101.148 283.376 105.474 278.235 111.085 278.235C121.585 278.235 167.585 275.735 169.085 252.735C169.085 240.335 164.085 236.235 161.585 235.735C164.752 225.402 161.885 198.835 125.085 175.235C143.418 179.235 181.085 178.235 185.085 142.235C186.385 130.965 168.521 125.332 157.554 126.964C165.195 123.782 174.053 114.777 169.085 95.2353C163.085 71.6353 153.585 62.402 149.585 60.7353C155.918 54.2353 165.485 37.3353 153.085 21.7353C145.085 13.3353 142.085 14.5686 141.585 16.2353C140.418 20.2353 134.785 30.7353 121.585 40.7353L98.6806 39.8191C96.5394 102.723 89.3248 216.496 74.3517 271.735Z" fill="black" fill-opacity="0.04"/>
</g>
</svg>
