<svg width="345" height="298" viewBox="0 0 345 298" fill="none" xmlns="http://www.w3.org/2000/svg">
<path d="M205.733 32.8998C159.558 22.9482 127.387 32.2545 117.074 38.1516C111.804 30.5608 94.1875 18.7492 65.8767 32.2287C37.5659 45.7081 39.549 74.8443 44.0793 87.7275C16.1716 111.668 -11.1753 193.821 23.3928 233.574C57.9609 273.327 187.539 270.705 293.254 245.697C366.647 193.544 321.565 113.805 289.85 80.4555C296.136 72.5788 301.22 51.1376 271.268 28.3864C241.317 5.63514 215.098 21.9157 205.733 32.8998Z" fill="#79C755" stroke="black" stroke-width="3.5"/>
<path fill-rule="evenodd" clip-rule="evenodd" d="M224.259 258.35C241.475 245.16 253.218 224.977 255.003 201.65C258.332 158.147 225.763 120.182 182.26 116.854C138.757 113.525 100.792 146.094 97.4635 189.597C95.0712 220.865 111.223 249.271 136.65 264.013C164.162 264.368 194.165 262.346 224.259 258.35Z" fill="#FDFFCE"/>
<ellipse cx="85.734" cy="70.1094" rx="17.5" ry="20.5" transform="rotate(27.7131 85.734 70.1094)" fill="#242424"/>
<ellipse cx="248.026" cy="56.2783" rx="17.5" ry="20.5" transform="rotate(-49.5805 248.026 56.2783)" fill="#242424"/>
<path d="M187.28 64.3455C180.194 64.1075 174.17 62.0106 171.039 60.333C165.735 64.5078 160.979 67.0807 156.87 68.5644C155.45 78.3886 155.708 98.1737 168.102 98.7208C185.405 98.0388 188.097 75.5197 187.28 64.3455Z" fill="#FFBDBD"/>
<path d="M140.824 68.552C143.143 70.1726 148.743 71.4986 156.87 68.5644M204.096 60.8563C198.405 63.6716 192.549 64.5224 187.28 64.3455M187.28 64.3455C180.194 64.1075 174.17 62.0106 171.039 60.333C165.735 64.5078 160.979 67.0807 156.87 68.5644M187.28 64.3455C188.097 75.5197 185.405 98.0388 168.102 98.7208C155.708 98.1737 155.45 78.3886 156.87 68.5644" stroke="black" stroke-width="3.5" stroke-linecap="round"/>
<path d="M202.757 163.554C203.154 158.369 225.133 146.377 236.073 141.029C252.093 150.111 279.289 173.922 259.91 196.51C250.77 197.983 229.662 199.912 218.34 195.836C207.018 191.761 207.251 181.281 208.783 176.551C205.408 174.789 202.261 170.035 202.757 163.554Z" fill="#79C755"/>
<path d="M134.541 176.888C148.465 167.925 122.414 154.063 107.647 148.253C97.1051 157.142 77.3039 180.432 82.4363 202.488C86.3992 203.126 98.4665 204.015 115.032 202.475C131.598 200.934 134.941 184.775 134.541 176.888Z" fill="#79C755"/>
<path d="M269.316 224.308C267.167 220.934 262.259 220.425 260.073 220.592C252.02 220.979 255.128 226.231 250.641 225.888C246.154 225.545 244.773 223.935 238.831 229.498C228.485 246.759 242.335 262.361 255.22 264.349C268.106 266.338 281.91 262.881 289.92 249.955C297.929 237.028 288.49 222.766 280.091 221.121C271.692 219.475 273.803 224.651 269.316 224.308Z" fill="#A2DC69" stroke="black" stroke-width="3.5"/>
<path d="M91.046 234.395C89.5433 230.688 84.8077 229.299 82.6278 229.067C74.6377 227.99 76.7443 233.719 72.3936 232.569C68.043 231.419 66.976 229.586 60.1255 233.981C46.8253 249.085 57.6228 266.936 69.9359 271.224C82.2489 275.512 96.4506 274.611 106.667 263.347C116.884 252.084 110.182 236.349 102.22 233.21C94.2571 230.072 95.3967 235.545 91.046 234.395Z" fill="#A2DC69" stroke="black" stroke-width="3.5"/>
<path d="M236.073 141.029C225.133 146.377 203.154 158.369 202.757 163.553C202.261 170.034 205.408 174.788 208.783 176.551C207.251 181.281 207.018 191.761 218.34 195.836C229.662 199.912 250.77 197.983 259.91 196.509M107.647 148.253C122.414 154.063 148.465 167.924 134.541 176.888C134.941 184.775 131.598 200.934 115.032 202.475C98.4665 204.015 86.3992 203.125 82.4363 202.488" stroke="black" stroke-width="3.5" stroke-linecap="round"/>
<path fill-rule="evenodd" clip-rule="evenodd" d="M328.758 146.871C177.923 217.805 63.8244 185.789 10.9681 151.73C4.1958 181.07 5.50229 213.001 23.3928 233.575C30.2564 241.468 40.8655 247.69 54.2898 252.398C55.7151 261.206 62.5531 268.653 69.9358 271.224C82.2489 275.512 96.4506 274.611 106.667 263.347C106.884 263.108 107.093 262.867 107.295 262.625C116.659 263.426 126.484 263.882 136.65 264.013C163.381 264.358 192.464 262.459 221.697 258.686C222.551 258.575 223.405 258.464 224.259 258.35C229.745 257.622 235.234 256.828 240.712 255.971C244.579 260.48 249.979 263.541 255.22 264.35C268.106 266.338 281.91 262.881 289.92 249.955C290.724 248.656 291.353 247.345 291.824 246.034C292.301 245.922 292.778 245.81 293.254 245.697C333.639 216.999 338.152 179.949 328.758 146.871Z" fill="black" fill-opacity="0.07"/>
</svg>
