<svg width="212" height="148" viewBox="0 0 212 148" fill="none" xmlns="http://www.w3.org/2000/svg">
<path fill-rule="evenodd" clip-rule="evenodd" d="M4.82037 73.9734C1.86701 68.5128 0.205811 62.3545 0.205811 55.8386C0.205811 33.3582 19.9793 15.1342 44.3711 15.1342C44.5126 15.1342 44.654 15.1348 44.7952 15.136C52.895 6.04054 65.188 0.238098 78.9515 0.238098C87.0347 0.238098 94.6108 2.23947 101.128 5.73387C107.645 2.23947 115.221 0.238098 123.305 0.238098C136.908 0.238098 149.074 5.90597 157.176 14.8191C160.421 14.1188 163.805 13.7485 167.282 13.7485C191.674 13.7485 211.447 31.9725 211.447 54.4529C211.447 61.5261 209.49 68.178 206.047 73.9734C209.49 79.7688 211.447 86.4206 211.447 93.4938C211.447 115.974 191.674 134.198 167.282 134.198C163.805 134.198 160.421 133.828 157.176 133.128C149.074 142.041 136.908 147.709 123.305 147.709C115.221 147.709 107.645 145.707 101.128 142.213C94.6108 145.707 87.0347 147.709 78.9515 147.709C65.188 147.709 52.895 141.906 44.7952 132.811C44.654 132.812 44.5126 132.813 44.3711 132.813C19.9793 132.813 0.205811 114.589 0.205811 92.1082C0.205811 85.5923 1.86701 79.434 4.82037 73.9734Z" fill="white"/>
</svg>
