<svg width="24" height="24" viewBox="0 0 24 24" fill="none" xmlns="http://www.w3.org/2000/svg">
<path d="M12 12C15.3137 12 18 9.31371 18 6C18 2.68629 15.3137 0 12 0C8.68629 0 6 2.68629 6 6C6 9.31371 8.68629 12 12 12Z" fill="white"/>
<path d="M0 22.0573C0 17.8134 2.2827 14.0909 5.67256 12C7.2071 13.7446 9.45601 14.8455 11.962 14.8455C14.4681 14.8455 16.717 13.7446 18.2515 12C21.6414 14.0909 23.9241 17.8134 23.9241 22.0573C23.9241 22.0573 20.9336 23.3731 11.962 23.3731C2.99051 23.3731 0 22.0573 0 22.0573Z" fill="white"/>
</svg>
