<svg width="128" height="100" viewBox="0 0 128 100" fill="none" xmlns="http://www.w3.org/2000/svg">
<path d="M122.536 84.2581H108.464C107.444 84.2581 106.599 85.1025 106.599 86.1227V88.3743C106.599 89.3946 107.444 90.2389 108.464 90.2389H122.536C123.556 90.2389 124.401 89.3946 124.401 88.3743V86.1227C124.401 85.1025 123.592 84.2581 122.536 84.2581Z" fill="#192B6C"/>
<path d="M118.842 33.1047C118.49 32.0845 117.963 31.3457 117.47 30.818C116.415 29.7273 114.62 29.7273 113.53 30.818C113.037 31.3457 112.51 32.0845 112.158 33.1047C111.102 36.0951 102.659 50.3435 103.011 60.1942C103.363 70.045 108.464 73.2113 108.464 77.6089C108.464 79.4735 108.464 80.9159 108.464 82.3935H122.536C122.536 80.9511 122.536 79.4735 122.536 77.6089C122.536 73.2113 127.637 70.045 127.989 60.1942C128.341 50.3435 119.898 36.0951 118.842 33.1047Z" fill="#192B6C"/>
<path d="M112.51 98.0843C112.756 99.0694 113.987 99.8434 115.5 99.8434C117.013 99.8434 118.244 99.0694 118.49 98.0843H112.51Z" fill="#192B6C"/>
<path d="M109.786 93.4911L121.402 93.4577C121.437 93.4606 121.472 93.4635 121.543 93.4692C121.829 93.4222 122.094 93.1969 122.12 92.8814C122.146 92.5658 121.956 92.3031 121.646 92.207C121.611 92.2041 121.576 92.2012 121.506 92.1954L109.925 92.2317C109.574 92.2029 109.271 92.4603 109.242 92.8109C109.213 93.1616 109.435 93.4622 109.786 93.4911Z" fill="#192B6C"/>
<path d="M121.39 95.3276C121.355 95.3247 121.32 95.3218 121.25 95.316L109.668 95.3523C109.318 95.3234 109.014 95.5809 108.985 95.9315C108.956 96.2821 109.214 96.5857 109.564 96.6145L121.181 96.5812C121.216 96.5841 121.251 96.5869 121.321 96.5927C121.607 96.5456 121.873 96.3204 121.899 96.0048C121.925 95.6892 121.665 95.4207 121.39 95.3276Z" fill="#192B6C"/>
<path d="M57 92C57.4529 94.24 59.7176 96 62.5 96C65.2823 96 67.5471 94.24 68 92H57Z" fill="#192B6C"/>
<path d="M53.424 84.6689L71.9868 84.6156C72.0429 84.6202 72.0989 84.6248 72.211 84.634C72.6684 84.5588 73.0929 84.1988 73.1343 83.6946C73.1758 83.1903 72.8718 82.7704 72.3768 82.6169C72.3208 82.6123 72.2647 82.6077 72.1527 82.5985L53.6458 82.6564C53.0855 82.6103 52.6005 83.0217 52.5544 83.582C52.5083 84.1423 52.8637 84.6228 53.424 84.6689Z" fill="#192B6C"/>
<path d="M72.3567 87.5672C72.3012 87.5626 72.2456 87.558 72.1345 87.5489L53.7848 87.6197C53.2293 87.574 52.748 87.9857 52.7019 88.546C52.6559 89.1063 53.0634 89.5911 53.6189 89.6368L72.0242 89.5705C72.0798 89.5751 72.1353 89.5797 72.2464 89.5888C72.7001 89.5133 73.1212 89.153 73.1626 88.6488C73.2041 88.1445 72.8521 87.6643 72.3567 87.5672Z" fill="#192B6C"/>
<path d="M71.8578 76H53.1422C51.9583 76 51 76.8947 51 78C51 79.1053 51.9583 80 53.1422 80H71.8578C73.0417 80 74 79.1053 74 78C74 76.8947 73.0417 76 71.8578 76Z" fill="#192B6C"/>
<path d="M62.6684 0C62.6122 0 62.6122 0 62.5559 0C62.4997 0 62.4997 0 62.4434 0C45.0623 0 31 14.2308 31 31.82C31 44.1723 38.5937 53.5646 47.2561 61.5338C50.6873 64.7215 52.7123 69.2754 52.7123 74H62.3872C62.3872 74 62.4434 74 62.4997 74C62.5559 74 62.6122 74 62.6122 74H72.2871C72.2871 69.2185 74.312 64.6646 77.7432 61.5338C86.4057 53.5646 93.9993 44.2292 93.9993 31.82C94.1118 14.2877 80.0495 0 62.6684 0Z" fill="#192B6C"/>
<path d="M6.99895 95.1386C7.25955 96.181 8.56255 97 10.1634 97C11.7642 97 13.0672 96.181 13.3278 95.1386H6.99895Z" fill="#192B6C"/>
<path d="M1.53365 90.2299L18.9506 90.2202C18.9878 90.2224 19.0249 90.2246 19.0992 90.229C19.401 90.1723 19.6766 89.9277 19.6964 89.5932C19.7163 89.2587 19.5088 88.9854 19.1787 88.8912C19.1415 88.8889 19.1044 88.8867 19.0301 88.8823L7.77591 88.736L1.65028 88.8943C1.27865 88.8722 0.963683 89.1519 0.94161 89.5235C0.919537 89.8951 1.16202 90.2079 1.53365 90.2299Z" fill="#192B6C"/>
<path d="M18.9424 92.2336C18.9052 92.2314 18.868 92.2292 18.7937 92.2248L7.53958 92.0784L1.41394 92.2367C1.04231 92.2147 0.72735 92.4943 0.705277 92.8659C0.683204 93.2376 0.962846 93.5525 1.33448 93.5746L18.7514 93.5648C18.7886 93.567 18.8258 93.5692 18.9001 93.5737C19.2018 93.517 19.4774 93.2723 19.4973 92.9378C19.5171 92.6034 19.2746 92.2906 18.9424 92.2336Z" fill="#192B6C"/>
<path d="M18.9121 84.1561H1.41469C0.632886 84.1561 0 84.789 0 85.5708C0 86.3526 0.632886 86.9855 1.41469 86.9855H18.9121C19.6939 86.9855 20.3268 86.3526 20.3268 85.5708C20.3268 84.789 19.6939 84.1561 18.9121 84.1561Z" fill="#192B6C"/>
<path d="M19.4705 82.2203V31.1799C19.4705 27.7549 16.6784 25 13.2906 25H7.11067C3.68564 25 0.930727 27.7921 0.930727 31.1799V82.2203H19.4705Z" fill="#192B6C"/>
</svg>
